<?xml version="1.0" standalone="no"?>
<!DOCTYPE svg PUBLIC "-//W3C//DTD SVG 20010904//EN"
 "http://www.w3.org/TR/2001/REC-SVG-20010904/DTD/svg10.dtd">
<svg version="1.0" xmlns="http://www.w3.org/2000/svg"
 width="40.000000pt" height="40.000000pt" viewBox="0 0 550.000000 600.000000"
 preserveAspectRatio="xMidYMid meet">

<g transform="translate(50.000000,500.000000) scale(0.100000,-0.100000)"
fill="#FF0000" stroke="none">
<path d="M1810 3794 c-85 -53 -156 -97 -157 -98 -2 -1 24 -137 57 -302 33
-164 58 -304 56 -310 -2 -5 -46 -23 -97 -39 -52 -15 -135 -50 -186 -77 l-91
-49 -95 138 c-51 76 -194 289 -317 473 -122 184 -225 338 -229 342 -5 6 -476
-104 -486 -114 -5 -5 -115 -457 -115 -474 0 -8 210 -154 468 -325 257 -171
471 -315 476 -320 5 -4 -14 -51 -42 -106 -27 -54 -62 -140 -78 -191 -25 -83
-30 -93 -48 -88 -83 19 -597 118 -600 115 -1 -2 -46 -75 -100 -162 l-96 -158
97 -160 c59 -95 104 -159 114 -159 13 0 523 100 585 115 18 4 23 -5 48 -88 15
-50 50 -136 77 -191 28 -54 47 -101 42 -106 -4 -4 -218 -148 -476 -320 -299
-200 -467 -319 -467 -329 1 -9 27 -119 58 -245 l57 -229 240 -58 c132 -32 243
-55 246 -51 4 4 149 220 323 480 l318 473 91 -50 c51 -27 134 -62 186 -77 51
-15 95 -32 97 -38 2 -6 -23 -146 -56 -311 -33 -164 -57 -302 -52 -305 16 -14
310 -190 316 -190 9 0 285 168 307 187 15 12 11 40 -43 309 -33 163 -57 301
-55 308 3 7 47 25 98 40 52 16 135 50 185 77 l91 49 322 -480 c177 -264 323
-480 324 -480 31 6 478 118 481 121 11 13 117 482 110 489 -5 4 -219 148 -476
319 -258 171 -468 316 -468 321 0 6 23 54 50 108 28 53 62 137 76 185 21 71
29 87 42 83 59 -17 586 -117 596 -113 15 6 196 299 196 317 0 16 -182 311
-195 316 -6 3 -144 -22 -308 -54 -208 -41 -300 -55 -306 -48 -5 6 -20 51 -34
99 -15 49 -47 126 -72 172 -25 46 -45 87 -45 92 0 6 210 151 468 323 257 172
471 316 476 321 6 5 -98 474 -109 487 -1 2 -105 28 -231 58 -126 30 -235 57
-242 59 -7 3 -136 -181 -332 -475 -176 -264 -322 -480 -324 -480 -2 0 -45 22
-97 49 -52 27 -136 62 -186 77 -68 20 -93 32 -93 44 0 9 26 147 59 308 41 209
55 294 47 301 -21 17 -308 191 -314 191 -4 0 -77 -44 -162 -96z m370 -1106
c218 -77 372 -235 440 -453 31 -99 31 -270 0 -370 -69 -220 -239 -394 -445
-455 -96 -28 -113 -31 -204 -31 -299 1 -553 193 -643 486 -30 99 -30 271 0
370 67 217 230 384 442 453 88 29 108 31 235 27 83 -3 126 -10 175 -27z"/>
<path d="M1888 2337 c-123 -35 -211 -155 -210 -288 0 -117 65 -219 171 -271
36 -18 63 -23 126 -23 98 0 156 26 220 97 166 185 45 477 -204 494 -31 2 -77
-2 -103 -9z"/>
</g>
</svg>
